<svg width="40" height="40" viewBox="0 0 40 40" fill="none" xmlns="http://www.w3.org/2000/svg">
<path d="M0 20C0 8.95431 8.95431 0 20 0C31.0457 0 40 8.95431 40 20C40 31.0457 31.0457 40 20 40C8.95431 40 0 31.0457 0 20Z" fill="#2A264F"/>
<path d="M14.5 27C14.0833 27 13.7292 26.8542 13.4375 26.5625C13.1458 26.2708 13 25.9167 13 25.5C13 25.0833 13.1458 24.7292 13.4375 24.4375C13.7292 24.1458 14.0833 24 14.5 24C14.9167 24 15.2708 24.1458 15.5625 24.4375C15.8542 24.7292 16 25.0833 16 25.5C16 25.9167 15.8542 26.2708 15.5625 26.5625C15.2708 26.8542 14.9167 27 14.5 27ZM25 27C25 25.3333 24.6806 23.7778 24.0417 22.3333C23.4167 20.875 22.5625 19.6042 21.4792 18.5208C20.3958 17.4375 19.125 16.5833 17.6667 15.9583C16.2222 15.3194 14.6667 15 13 15V13C14.9444 13 16.7569 13.3681 18.4375 14.1042C20.1319 14.8264 21.6181 15.8264 22.8958 17.1042C24.1736 18.3819 25.1736 19.8681 25.8958 21.5625C26.6319 23.2431 27 25.0556 27 27H25ZM20 27C20 26.0278 19.8194 25.1181 19.4583 24.2708C19.0972 23.4236 18.5972 22.6806 17.9583 22.0417C17.3194 21.4028 16.5764 20.9028 15.7292 20.5417C14.8819 20.1806 13.9722 20 13 20V18C14.2639 18 15.4375 18.2361 16.5208 18.7083C17.6042 19.1667 18.5556 19.8056 19.375 20.625C20.1944 21.4444 20.8333 22.3958 21.2917 23.4792C21.7639 24.5625 22 25.7361 22 27H20Z" fill="white"/>
</svg>
